<?xml version="1.0" encoding="UTF-8"?>
<svg id="Layer_2" xmlns="http://www.w3.org/2000/svg" version="1.1" viewBox="0 0 653.5 503.2">
  <!-- Generator: Adobe Illustrator 29.7.1, SVG Export Plug-In . SVG Version: 2.1.1 Build 8)  -->
  <defs>
    <style>
      .st0 {
        fill: #fff;
      }
    </style>
  </defs>
  <g id="Layer_1-2">
    <g>
      <path class="st0" d="M33.2,76.1c-34.2,11.3-20.7,19.1,5.4,25.3,69.7,16.7,151.3,1.2,221.7-4.9,4.5,1.4,4.7,7.5,0,8.9-24.8,2.9-49.6,7.6-74.5,10-47.9,4.6-116.4,8.2-162.2-6.7-11.6-3.8-29.1-10.4-22-25.9,7.8-17.1,83.7-27.5,102.7-26.9,0,0-1.3-3.2-4.2-4.3-13.3-5.3-55-15.5-55.1-33.1C44.8,4.2,83.2.8,93.7.2c20.6-1.1,44.5,1.6,65.1,4.2,47.9,5.9,95.6,18.7,142.4,29.7,5.9-.7,9.4-22.5,17.2-22.4s18.2,25.3,23.1,30.8c3.2.8,3.8-2.7,4.9-4.7,3.5-6.6,11.9-38.2,22.7-31.5,1.4.8,10.1,26.7,10.9,30.4,2,9.1.7,8.6-8.8,8.9l-8.6-22.2-9.7,23.1c11.4,7.7,19.1.5,29.4-1.5,47.7-9.2,75.3,26.7,88.8,67.6,4.8,14.6,9.8,27.4-1.9,40.3,14.8,5.6,31,8.8,32.7,27.7,4.9,4.3,45.1-20.9,50.7-26.8l22.1-30.7c-6,34.2-39.8,51.1-68.7,62.8-2.9,1.2-5.2-1.1-4.2,4.3,34.3-1.4,67.6-11.7,92.1-36.5,1.3,1.5-7.1,11.9-8.6,13.4-12.6,12.7-38.6,23.2-56.2,26.4-8.1,1.5-37.8.8-38.3,11.1-.1,1.7,3.3,4.6,3.3,7.7,0,4.9-8.4,8.9-6.9,14.4,2.2,7.9,27.9,31.5,34.6,40.4,6.5,8.8,13.8,20,16.5,30.5l-25.9-32.6-25.9-24.9c3.8,32.8,18.5,65.5,24.7,97.2.5,2.5-.3,3.8-2.6,2.6-9.9-5.2-15.2-47.6-23.2-59.4-9-13.4-55.7-47-58.1-55.3-3.7-12.4,13.3-18.6,14.7-22.9,1.4-4.1-.3-10.2.4-14.9.9-5.8,6.4-10,5.6-16.4-24.4-5.7-25.7,16.8-38.3,27.9-15.2,13.4-25.8-3.2-19.3-18.3-5.1-1-3.4,1.1-4.7,3.8-4.1,8.4-6.6,18.1-19.2,17.2-8.2-.6-31.1-29.3-45.2-28.7l26.9,137.2c-8.6,59.1-5.6,122.4-28.7,178.6-2.2,5.2-4,11.8-9.6,14.4,3.2-25.7,14.1-51.5,18.2-76.7,5.5-34,5.5-72.1,10.6-106.6l-29-153.7c1.2-9.6,7-10.8,15.4-9.5-13.3-13.3-27.5-32.9-42.2-44.2-1.9-1.5-2.4-3.7-5.8-2.9,1.7,24.6.9,49.4,1.8,74,.9,24.2,8.9,83,4,103.2-.3,1.3-5.2,3.2-7.5,6.4-16.3,23.7-39.3,86.8-56.9,104.3-2.2,2.2-6.1,2.4-8.7,4.8-25.5,24-52.4,52.7-86.3,64.4-.6-3.7,2.5-5.5,4.8-7.6,11.8-10.5,29.2-20.3,42.1-30.8,4.9-4,35.7-29.2,36.9-31.2,15-23.6,33-55.5,46.9-80.7,3.4-6.1,12.8-21,14.1-26.2,5.6-21.9-.6-70.7-1.1-95-.4-18.6.5-37.2.2-55.8-.2-10-10.1-65.4,14.3-48.9l60.4,61.4v-19.2l-9.6,4.9-42.2-45.2,82.5-12.5c-13-6.1-30.6-7.1-45.1-8.6-34.4-3.8-69.2-4.1-103.6-7.8-47.2-.8-94.1-3.1-141.2,2M56.4,18.5c-8.2,8,18.1,13.8,28.2,17.8,53.6,20.8,95.8,16,151.1,19.7,35.9,2.4,71.9,6.1,107.6,9.7,6.5,0,9.7-6.9,14.3-10.7-75.3-18.2-151-38.1-228.4-45.1,0,0-59.7-4.2-72.9,8.6h0ZM319.2,27.2c-5.5-1.4-5.5,5.8-5.7,9.5l11.5,2s-5.8-11.5-5.8-11.5ZM468.6,219.6c-15.7-4.2-22-15.8-32.2,4.3l46,41.3-13.9-45.6h0Z"/>
      <path class="st0" d="M144.6,215.3c1.4,6.8,5.2,13.8,11.5,17.3l-.9-28.8,23-21.1c3.8-.8,2.3.9,3.3,2.4,3.8,6.4,5.8,17.6,14.9,18.6-3.4-8.6-8.1-22.1-5.4-31.3,1.9-6.5,21.4-17.1,25.5-24.4,4.1-.7,2.2.8,3,2.6,3.2,7.2,5.8,18.9,15.2,20.4-4.5-10.4-6.4-21.9-5.8-33.2,7.7-4.8,14.4-11.9,22.1-16.8,1.6-1.1,2.6-3.3,4.9-1,8.8,5.7,9,51.2,7.7,61.6-.3,2.1,0,4.2-2.1,5.6-32.9,26.1-67.5,57.4-108.4,70.2-9.8,3-50.1,13.2-55.8,3.8-7.3-12.2,18.3-22.4,25.8-28,7.4-5.7,12.5-14.1,21.3-18.1h0Z"/>
      <path class="st0" d="M516.7,200.2l7.9,35.3c25.3,12.5,50.6,35.8,76.1,46.8,15.6,6.8,34.3,7,48.7,12.8,3.1,1.2,4.7-.2,3.8,4.7-16.5-.2-39.7-3.1-55.1-9.2-15.1-6-69.9-40.6-83-51.4-6.5-5.4-4.2-29.3-7.9-38.2l9.4-.7h0Z"/>
      <path class="st0" d="M512.8,172.8l-7.4,2.2-9.6-72.9-18.2,15.3c-2.7-6.1-7.1-11.4-2.1-17.4,3.9-4.7,23.9-19.8,27.6-10.1l9.7,82.8h0Z"/>
      <path class="st0" d="M282.8,165.4l-1.9-46.1c3.3-.9,3.8,1.4,5.8,2.9,7.9,6.1,15.2,16.5,23,23.2.6,2.9-25.5,21.5-26.8,20h0Z"/>
      <path class="st0" d="M491.8,54.3c1.8,1.1,1.6,6.3.8,8.7-1,2.6-23.8,32.6-25.4,31.3l-4.9-17.2c5.9-5.1,20-28.8,29.6-22.9h0Z"/>
      <path class="st0" d="M319.2,27.2l5.8,11.5-11.5-2c.2-3.7.2-11,5.7-9.5Z"/>
    </g>
  </g>
</svg>