<?xml version="1.0" encoding="UTF-8"?>
<svg id="Layer_2" xmlns="http://www.w3.org/2000/svg" version="1.1" viewBox="0 0 712.9 637.7">
  <!-- Generator: Adobe Illustrator 29.7.1, SVG Export Plug-In . SVG Version: 2.1.1 Build 8)  -->
  <defs>
    <style>
      .st0 {
        fill: #fff;
      }
    </style>
  </defs>
  <g id="Layer_2-2">
    <path class="st0" d="M629,182.4c.9-13.4,2.5-23.4-7.2-34.1-14.5-16-42.8-12.7-50.1,8-9.7,27.5,25,62.6,28.1,92.3,4.5,43.2-18.3,79.1-57.5,96l-41,11.2c9.1,9,19.7,16.6,30.9,22.7,20.8,11.4,49.6,22.6,71.6,8.7,39.9-25.1-6.4-82.7,30.9-118.6,20.7-19.9,58.7-18.3,73.2,8.1,7.4,13.4,8,35.3-9.3,40.5,7.3-21.7-9.9-45.2-32.9-35-24.6,10.8-6.4,52.4-5,72.2,2.2,32-13.3,59.4-40.9,74.8-48.6,27.1-103.8.7-148.3-22-.7,15.8,15.2,35.6,27.6,44.9,42.2,31.8,96.8-7.3,133.5,37.7,25.1,30.8,11,83.4-30.7,85.5-11.2.6-31.2-7.2-30.2-20.2,12.4,3.7,25.3,5.9,36-3.1,13.8-11.6,13.9-34.1-2.4-43.6-20.9-12.2-47.5.8-69.9,1.8-38,1.7-74.3-18.7-97.3-47.9-2.5,0-14.3,41.8-15.6,46.7-8.1,30.6-15.4,72.9,19.7,89.9,42.9,20.8,76.6-33.2,42.1-55.2-14.4-9.2-22.5-1.7-36.8-1,17.6-33.6,63.2-18.3,73.6,13.5,25.3,77.2-94.5,115.5-138.6,40-38.5-66,22.6-141.7-13.1-195.9-10.8-16.5-17.9-14.4-28.1,1.5-35.2,54.4,30.5,132.3-14.5,198.8-21.9,32.4-64.5,46.4-100.8,30.3-35.4-15.6-52.2-65-23.2-94.1,17-17,52.8-20.1,60.4,6.7-13.9-4.8-28.5-8.1-40.1,3.4-30.4,30.2,16.7,77.2,54.6,46.7,28.2-22.6,19.1-57.9,10.9-87.8-4-14.5-9.2-29.7-14.5-43.5-23,28.7-58.1,49.2-95.8,47.9-22-.8-73.8-20.9-82.4,11.8-7.5,28.6,21.3,44.4,45.4,33.1-5,25-38.3,23.2-55,10.8-33.7-25-20.7-77,15.3-93.3,39.6-17.9,76.1,7.5,114.2-22.2,9.6-7.5,25.7-29.1,27.1-41.1.3-3-1-2.5-3.3-1.9-10.9,3.1-28.1,14.5-40.2,19.3-49.2,19.5-116.6,23.1-141-34.5-16.2-38.4,1.4-51.5,1.8-84.4.3-20.9-19-36.5-37.7-23.1-10.7,7.6-11,20.9-8.8,32.5-15.2-4.3-15.8-22.5-11.3-35.2,12.1-33.9,59.3-34.9,80.1-8.2,26.3,33.9-5.1,76.5,16.2,104.2,26.8,34.8,88.5,1.9,112.3-22.4-11.9-3.4-23.9-5.1-35.6-9.4-49.6-18.1-76-66.3-58-117.6,6.8-19.2,26.3-42.2,25.3-62.9-1.1-21.9-23.8-34.3-43.3-24.8-15.4,7.6-18.9,25.8-16.1,41.2-16.3-4.1-17.7-24.7-13.1-38.5,17.1-51.6,92.5-41.1,106.5,11.2,12.2,45.5-23.5,71.3-19,106.1,5.2,40.3,56.9,47.1,82.9,21.2,26.3-26.2-4.4-52-15.4-75.8C174.5,96.8,268.5-20.9,386.7,3.2c89.3,18.1,138.2,116.2,102.2,199.5-10.4,24.1-42.9,51.4-19.5,77.7,22.1,24.7,70.9,24.3,83-9.9,12.8-36.2-31-70.8-15.8-118.9,18.5-58.4,107.4-51.8,108.5,5.5.2,9.4-5.4,24.3-16,25.3h0Z"/>
  </g>
</svg>