<?xml version="1.0" encoding="UTF-8"?>
<svg id="Layer_2" data-name="Layer 2" xmlns="http://www.w3.org/2000/svg" viewBox="0 0 719.78 487.46">
  <defs>
    <style>
      .cls-1 {
        fill: #fff;
      }
    </style>
  </defs>
  <g id="Layer_1-2" data-name="Layer 1">
    <g>
      <path class="cls-1" d="M355.03,140.43c50.7-2.25,94.32,32.43,104.2,81.88-1.66,6.68-74.66,51.3-85.89,57.43-11.06,6.04-76.05,38.54-83.63,36.6-64.68-59.94-23.08-171.99,65.32-175.91Z"/>
      <path class="cls-1" d="M39.17,311.04c-4.95,11.8-11.83,22.77-16.29,34.84-48.61,131.79,84.38,130.22,172.88,111.51,110.25-23.31,217.15-81.88,309.61-144.32l15.38,19.1c-1.21,7.19-98.1,61.88-111.68,68.85-89.84,46.1-261.33,112.79-359.7,75.59-76.81-29.04-50.94-117.38-10.21-165.57Z"/>
      <path class="cls-1" d="M626.93,245.94c-2.33-6.77-10.13-14.51-16.76-16.77l.03-2.7c35.81-35.26,99.5-113.55,75.28-166.5s-127.03-44.33-174.23-36.62c-77.34,12.64-150.74,42.32-220.97,75.69-1.7,2.33,5.55,8.44,7.41,10.23,6.06,5.83,13.21,11.61,19.6,17.69,1.27,1.21,8.59,2.81,3.4,5.52-6.76,1.43-13.23,5.13-19.31,8.32-3.98,2.09-8.24,8.21-9.2,1.91-2.11-13.81-1.73-28.02-3.78-41.84-17.8,7.87-34.1,18.85-51.4,27.62-1.67.85-4.91,3.88-6.23,1.21,70.9-46.65,150.29-86.82,232.48-109.74,62.97-17.56,164.95-35.44,222.67,2.37,83.6,54.76-7.55,178.13-58.97,223.6Z"/>
      <path class="cls-1" d="M563.21,231.55c69.61-9.04,82.56,96.72,16.11,105.36-70.96,9.23-82.37-96.75-16.11-105.36Z"/>
      <path class="cls-1" d="M200.97,270.12l-21.94,31.05c-25.3,45.26,3.44,55.98,44.94,50.52,84.91-11.17,252.52-99.6,301.43-170.97,15.47-22.56,20.93-45.32-11.86-52.98-22.71-5.31-37.36.66-58.93,2.66-2.08.19-6.67,1.72-6.25-1.61,46.87-13.08,128.96-14.14,83.73,56.75-46.68,73.16-251.1,187.01-337.13,175.23-58.92-8.07-21.44-68.92,6.01-90.65Z"/>
      <polygon class="cls-1" points="275.39 160.41 254.96 188.28 230.77 149.23 275.39 160.41"/>
      <path class="cls-1" d="M489.27,151.11l-25.11,37.14c-2.77-3.48-19.31-25.97-17.67-27.85l42.78-9.3Z"/>
      <path class="cls-1" d="M375.82,125.05h-28.83c-.4,0-2.09,2.77-2.77,1.86-.12-4.03,14.07-44.75,16.7-42.77l14.9,40.91Z"/>
      <path class="cls-1" d="M427.88,145.51c-7.97-5.38-16.52-8.99-25.3-12.86-1.76-.78-3.25,1.09-2.57-2.93l31.58-28.85-3.72,44.63Z"/>
      <path class="cls-1" d="M247.48,208.75c-2.95,11.02-4.56,21.99-3.73,33.47l-39.03-20.49c-.48-4.91-.1-3.01,2.77-3.66,13.36-3.04,26.81-5.59,39.99-9.32Z"/>
    </g>
  </g>
</svg>